<mxfile host="Electron" agent="Mozilla/5.0 (X11; Linux x86_64) AppleWebKit/537.36 (KHTML, like Gecko) draw.io/26.2.2 Chrome/134.0.6998.178 Electron/35.1.2 Safari/537.36" version="26.2.2">
  <diagram name="Page-1" id="OsoMbLZKniC6jERaK0dM">
    <mxGraphModel dx="2064" dy="1348" grid="1" gridSize="10" guides="1" tooltips="1" connect="1" arrows="1" fold="1" page="1" pageScale="1" pageWidth="850" pageHeight="1100" math="0" shadow="0">
      <root>
        <mxCell id="0" />
        <mxCell id="1" parent="0" />
        <mxCell id="1bpEYGszrCiCGTDApiuo-12" value="" style="rounded=0;whiteSpace=wrap;html=1;fillColor=none;strokeColor=none;" parent="1" vertex="1">
          <mxGeometry x="160" y="360" width="760" height="60" as="geometry" />
        </mxCell>
        <mxCell id="1bpEYGszrCiCGTDApiuo-1" value="1-&amp;gt;18 MUX" style="shape=trapezoid;perimeter=trapezoidPerimeter;whiteSpace=wrap;html=1;fixedSize=1;fillColor=#d5e8d4;strokeColor=#82b366;fontStyle=1" parent="1" vertex="1">
          <mxGeometry x="280" y="400" width="240" height="60" as="geometry" />
        </mxCell>
        <mxCell id="1bpEYGszrCiCGTDApiuo-2" value="" style="shape=trapezoid;perimeter=trapezoidPerimeter;whiteSpace=wrap;html=1;fixedSize=1;rotation=-180;fillColor=#d5e8d4;strokeColor=#82b366;" parent="1" vertex="1">
          <mxGeometry x="280" y="201" width="240" height="60" as="geometry" />
        </mxCell>
        <mxCell id="1bpEYGszrCiCGTDApiuo-3" value="3-&amp;gt;1 Arbiter" style="text;html=1;align=center;verticalAlign=middle;whiteSpace=wrap;rounded=0;fontStyle=1" parent="1" vertex="1">
          <mxGeometry x="355" y="216" width="90" height="30" as="geometry" />
        </mxCell>
        <mxCell id="1bpEYGszrCiCGTDApiuo-5" value="" style="endArrow=classic;html=1;rounded=0;entryX=0.5;entryY=0;entryDx=0;entryDy=0;exitX=0.5;exitY=0;exitDx=0;exitDy=0;" parent="1" source="1bpEYGszrCiCGTDApiuo-2" target="F0O-6EYRrjXPhbHmxrxB-1" edge="1">
          <mxGeometry width="50" height="50" relative="1" as="geometry">
            <mxPoint x="150" y="440" as="sourcePoint" />
            <mxPoint x="200" y="390" as="targetPoint" />
          </mxGeometry>
        </mxCell>
        <mxCell id="1bpEYGszrCiCGTDApiuo-6" value="Data Bus" style="text;html=1;align=center;verticalAlign=middle;whiteSpace=wrap;rounded=0;fontSize=24;fontStyle=1" parent="1" vertex="1">
          <mxGeometry x="320" y="500" width="160" height="30" as="geometry" />
        </mxCell>
        <mxCell id="1bpEYGszrCiCGTDApiuo-7" value="1-&amp;gt;4 MUX" style="shape=trapezoid;perimeter=trapezoidPerimeter;whiteSpace=wrap;html=1;fixedSize=1;fillColor=#d5e8d4;strokeColor=#82b366;fontStyle=1" parent="1" vertex="1">
          <mxGeometry x="560" y="400" width="240" height="60" as="geometry" />
        </mxCell>
        <mxCell id="1bpEYGszrCiCGTDApiuo-8" value="" style="shape=trapezoid;perimeter=trapezoidPerimeter;whiteSpace=wrap;html=1;fixedSize=1;rotation=-180;fillColor=#d5e8d4;strokeColor=#82b366;" parent="1" vertex="1">
          <mxGeometry x="560" y="300" width="240" height="60" as="geometry" />
        </mxCell>
        <mxCell id="1bpEYGszrCiCGTDApiuo-9" value="2-&amp;gt;1 Arbiter" style="text;html=1;align=center;verticalAlign=middle;whiteSpace=wrap;rounded=0;fontStyle=1" parent="1" vertex="1">
          <mxGeometry x="635" y="315" width="90" height="30" as="geometry" />
        </mxCell>
        <mxCell id="1bpEYGszrCiCGTDApiuo-10" value="" style="endArrow=classic;html=1;rounded=0;entryX=0.5;entryY=0;entryDx=0;entryDy=0;exitX=0.5;exitY=0;exitDx=0;exitDy=0;" parent="1" source="1bpEYGszrCiCGTDApiuo-8" target="1bpEYGszrCiCGTDApiuo-7" edge="1">
          <mxGeometry width="50" height="50" relative="1" as="geometry">
            <mxPoint x="430" y="440" as="sourcePoint" />
            <mxPoint x="480" y="390" as="targetPoint" />
          </mxGeometry>
        </mxCell>
        <mxCell id="1bpEYGszrCiCGTDApiuo-11" value="Instruction Bus" style="text;html=1;align=center;verticalAlign=middle;whiteSpace=wrap;rounded=0;fontSize=24;fontStyle=1" parent="1" vertex="1">
          <mxGeometry x="590" y="500" width="180" height="30" as="geometry" />
        </mxCell>
        <mxCell id="F0O-6EYRrjXPhbHmxrxB-1" value="&lt;b&gt;wb_timeout&lt;/b&gt;" style="rounded=0;whiteSpace=wrap;html=1;fillColor=#dae8fc;strokeColor=#6c8ebf;" vertex="1" parent="1">
          <mxGeometry x="340" y="300" width="120" height="60" as="geometry" />
        </mxCell>
        <mxCell id="F0O-6EYRrjXPhbHmxrxB-2" value="" style="endArrow=classic;html=1;rounded=0;entryX=0.5;entryY=0;entryDx=0;entryDy=0;" edge="1" parent="1" target="1bpEYGszrCiCGTDApiuo-1">
          <mxGeometry width="50" height="50" relative="1" as="geometry">
            <mxPoint x="400" y="360" as="sourcePoint" />
            <mxPoint x="410" y="310" as="targetPoint" />
          </mxGeometry>
        </mxCell>
      </root>
    </mxGraphModel>
  </diagram>
</mxfile>
